<svg width="31" height="32" viewBox="0 0 31 32" fill="none" xmlns="http://www.w3.org/2000/svg">
<path d="M11.1375 11.4862C11.1375 10.4612 10.3772 9.67279 9.47208 9.67279H5.56196C4.62064 9.67279 3.89655 10.5014 3.89655 11.4869V15.705C3.89655 16.73 4.65684 17.5184 5.56196 17.5184H9.43587C10.3772 17.5184 11.1013 16.6906 11.1013 15.705V11.4862H11.1368H11.1375Z" fill="#22546F" stroke="white" stroke-width="0.3"/>
<path d="M19.1022 11.4862C19.1022 10.4612 18.3419 9.67279 17.4368 9.67279H13.5267C12.5854 9.67279 11.8613 10.5014 11.8613 11.4869V15.705C11.8613 16.73 12.6216 17.5184 13.5267 17.5184H17.4006C18.3419 17.5184 19.066 16.6906 19.066 15.705V11.4862H19.1016H19.1022ZM17.6541 15.7437C17.6541 15.862 17.5454 15.9803 17.4368 15.9803H13.5267C13.4181 15.9803 13.3095 15.862 13.3095 15.7437V11.4862C13.3095 11.3679 13.4181 11.2497 13.5267 11.2497H17.4006C17.5092 11.2497 17.6179 11.3679 17.6179 11.4862V15.7437H17.6541Z" fill="#22546F" stroke="white" stroke-width="0.3"/>
<path d="M27.0673 11.4862C27.0673 10.4612 26.307 9.67279 25.4019 9.67279H21.4918C20.5505 9.67279 19.8264 10.5014 19.8264 11.4869V15.705C19.8264 16.73 20.5867 17.5184 21.4918 17.5184H25.3657C26.307 17.5184 27.0311 16.6906 27.0311 15.705V11.4862H27.0673ZM25.6191 15.7437C25.6191 15.862 25.5105 15.9803 25.4019 15.9803H21.4918C21.3832 15.9803 21.2746 15.862 21.2746 15.7437V11.4862C21.2746 11.3679 21.3832 11.2497 21.4918 11.2497H25.3657C25.4743 11.2497 25.5829 11.3679 25.5829 11.4862V15.7437H25.6191Z" fill="#22546F" stroke="white" stroke-width="0.3"/>
<path d="M9.47208 18.7398H5.56196C4.62064 18.7398 3.89655 19.5677 3.89655 20.5532V24.7713C3.89655 25.7963 4.65684 26.5847 5.56196 26.5847H9.43587C10.3772 26.5847 11.1013 25.7569 11.1013 24.7713V20.5532C11.1368 19.5677 10.3772 18.7398 9.47208 18.7398ZM9.6893 24.8108C9.6893 24.929 9.58069 25.0473 9.47208 25.0473H5.56196C5.45335 25.0473 5.34474 24.929 5.34474 24.8108V20.5532C5.34474 20.4349 5.45335 20.3167 5.56196 20.3167H9.43587C9.54449 20.3167 9.6531 20.4349 9.6531 20.5532V24.8108H9.6893Z" fill="#22546F" stroke="white" stroke-width="0.3"/>
<path d="M17.4368 18.7398H13.5267C12.5854 18.7398 11.8613 19.5677 11.8613 20.5532V24.7713C11.8613 25.7963 12.6216 26.5847 13.5267 26.5847H17.4006C18.3419 26.5847 19.066 25.7569 19.066 24.7713V20.5532C19.1016 19.5677 18.3419 18.7398 17.4368 18.7398ZM17.6541 24.8108C17.6541 24.929 17.5454 25.0473 17.4368 25.0473H13.5267C13.4181 25.0473 13.3095 24.929 13.3095 24.8108V20.5532C13.3095 20.4349 13.4181 20.3167 13.5267 20.3167H17.4006C17.5092 20.3167 17.6179 20.4349 17.6179 20.5532V24.8108H17.6541Z" fill="#22546F" stroke="white" stroke-width="0.3"/>
<path d="M25.4019 18.7398H21.4918C20.5505 18.7398 19.8264 19.5677 19.8264 20.5532V24.7713C19.8264 25.7963 20.5867 26.5847 21.4918 26.5847H25.3657C26.307 26.5847 27.0311 25.7569 27.0311 24.7713V20.5532C27.0673 19.5677 26.307 18.7398 25.4019 18.7398ZM25.6191 24.8108C25.6191 24.929 25.5105 25.0473 25.4019 25.0473H21.4918C21.3832 25.0473 21.2746 24.929 21.2746 24.8108V20.5532C21.2746 20.4349 21.3832 20.3167 21.4918 20.3167H25.3657C25.4743 20.3167 25.5829 20.4349 25.5829 20.5532V24.8108H25.6191Z" fill="#22546F" stroke="white" stroke-width="0.3"/>
<path d="M7.698 8.09593H8.4583C9.14619 8.09593 9.72547 7.5046 9.72547 6.71616V2.37976C9.72547 1.63075 9.1824 1 8.45766 1H7.69736C7.00947 1 6.43019 1.59133 6.43019 2.37976V6.75558C6.43019 7.5046 6.97391 8.09593 7.69736 8.09593H7.698ZM7.87903 2.57687H8.24107V6.51905H7.87903V2.57687Z" fill="#22546F" stroke="white" stroke-width="0.3"/>
<path d="M22.5418 8.09593H23.3021C23.99 8.09593 24.5692 7.5046 24.5692 6.71616V2.37976C24.5692 1.63075 24.0262 1 23.3014 1H22.5411C21.8532 1 21.274 1.59133 21.274 2.37976V6.75558C21.274 7.5046 21.817 8.09593 22.5418 8.09593ZM22.7228 2.57687H23.0849V6.51905H22.7228V2.57687Z" fill="#22546F" stroke="white" stroke-width="0.3"/>
<path d="M11.1373 5.33639H19.8265C20.2247 5.33639 20.5506 4.9816 20.5506 4.54796C20.5506 4.11432 20.2247 3.75952 19.8265 3.75952H11.1373C10.7391 3.75952 10.4132 4.11432 10.4132 4.54796C10.4132 4.9816 10.7391 5.33639 11.1373 5.33639Z" fill="#22546F" stroke="white" stroke-width="0.3"/>
<path d="M26.9588 3.75954H25.9813C25.583 3.75954 25.2572 4.11433 25.2572 4.54797C25.2572 4.98161 25.583 5.33641 25.9813 5.33641H26.9588C27.8277 5.33641 28.5156 6.08542 28.5156 7.03155V27.728C28.5156 28.6741 27.8277 29.4231 26.9588 29.4231H4.00499C3.13608 29.4231 2.44819 28.6741 2.44819 27.7287V7.03155C2.44819 6.08542 3.13608 5.33641 4.00499 5.33641H4.98252C5.38077 5.33641 5.70662 4.98161 5.70662 4.54797C5.70662 4.11433 5.38077 3.75954 4.98252 3.75954H4.00499C2.33958 3.76024 1 5.21814 1 7.03155V27.728C1 29.5414 2.33958 31 4.00499 31H26.995C28.6604 31 30 29.5414 30 27.728V7.03155C29.9638 5.21814 28.6242 3.75954 26.9588 3.75954Z" fill="#22546F" stroke="white" stroke-width="0.3"/>
</svg>
