<svg width="53" height="51" viewBox="0 0 53 51" fill="none" xmlns="http://www.w3.org/2000/svg">
<path d="M26.4981 0C26.0618 0 25.7154 0.356875 25.7154 0.780782V8.95681C25.7154 9.39204 26.0618 9.73759 26.4981 9.73759C26.9344 9.73759 27.2808 9.39204 27.2808 8.95681V0.780782C27.2808 0.345546 26.9344 0 26.4981 0ZM13.3806 5.19829C13.2547 5.20018 13.1289 5.23228 13.0134 5.29837C12.6329 5.51079 12.4985 5.98946 12.7115 6.35766C12.7115 6.35766 12.7115 6.36899 12.7228 6.36899L15.9208 11.9128C16.0552 12.1696 16.3126 12.3141 16.5918 12.3141C17.0281 12.3141 17.3745 11.9685 17.3745 11.5333C17.3745 11.3992 17.3405 11.2652 17.2742 11.1424L14.0762 5.59954C13.9305 5.33896 13.657 5.19451 13.3816 5.19829H13.3806ZM39.8125 5.21812C39.5352 5.21151 39.2654 5.35029 39.1112 5.61087L35.9132 11.1547C35.7002 11.5229 35.8233 12.0025 36.1924 12.2253C36.5615 12.4378 37.0423 12.315 37.2656 11.9468V11.9355L40.475 6.38032C40.6879 6.01212 40.5649 5.53251 40.1844 5.32103C40.0661 5.25494 39.9383 5.22095 39.8125 5.21812V5.21812ZM26.4877 11.2897C23.3654 11.2916 20.2432 12.4765 17.8553 14.8471C15.5404 17.1111 14.2324 20.2012 14.2437 23.4357C14.2437 26.1793 15.6189 28.6114 16.8379 30.7413C17.419 31.7562 17.9556 32.7154 18.2358 33.5189C18.7393 35.0134 19.1074 36.5523 19.3431 38.1148C19.3772 40.2901 21.1432 42.1301 23.2452 42.1301H29.7415C31.8322 42.1301 33.6105 40.2901 33.6436 38.1148C33.8784 36.5533 34.2475 35.0247 34.751 33.5311C35.0302 32.7173 35.5668 31.7685 36.1375 30.7649C37.3565 28.6123 38.743 26.1689 38.743 23.414C38.743 20.1899 37.4454 17.0903 35.1201 14.8367C32.7332 12.4717 29.6109 11.2897 26.4877 11.2907V11.2897ZM26.4896 12.8418C29.2134 12.839 31.9391 13.8709 34.0251 15.9395C36.0381 17.9023 37.1786 20.5911 37.1786 23.4017C37.1786 25.7554 35.9037 28.0081 34.7746 29.9935C34.1708 31.0642 33.6001 32.0687 33.2651 33.0166C32.7284 34.6225 32.3376 36.2625 32.0906 37.9354C32.0906 37.9798 32.0792 38.0138 32.0792 38.0582C32.0792 39.3856 30.9832 40.5676 29.7425 40.5676H23.2575C22.0168 40.5676 20.9208 39.3856 20.9208 38.0582C20.9208 38.0242 20.9208 37.9798 20.9094 37.9468C20.6634 36.2738 20.2611 34.6225 19.7245 33.0279C19.3999 32.08 18.8188 31.0538 18.2036 29.9718C17.0859 27.9977 15.811 25.7668 15.811 23.4357C15.811 20.6251 16.9515 17.9259 18.9645 15.9517C21.0448 13.8832 23.7667 12.8456 26.4905 12.8428L26.4896 12.8418ZM4.04882 14.7905C3.77152 14.7792 3.49611 14.9161 3.34279 15.1691C3.11943 15.5373 3.24246 16.0169 3.61157 16.2397L3.62293 16.251L9.15764 19.4525C9.52675 19.6649 10.0075 19.5422 10.2309 19.174C10.4542 18.8058 10.3208 18.3262 9.9517 18.1034L4.41698 14.9019C4.30152 14.832 4.17564 14.7962 4.04977 14.7905H4.04882ZM49.2521 14.798C49.1263 14.8018 49.0004 14.8349 48.8849 14.9019L43.3502 18.1034C42.9811 18.3158 42.8467 18.7945 43.0597 19.174C43.2054 19.4081 43.4619 19.5535 43.742 19.5535C43.8764 19.5535 44.0108 19.5196 44.1339 19.4535L49.6686 16.252C50.0377 16.0292 50.1607 15.5496 49.9478 15.1813C49.802 14.9283 49.5285 14.7914 49.2531 14.799L49.2521 14.798ZM0.782696 27.9628C0.346393 27.9628 0 28.3083 0 28.7435C0 29.1788 0.346393 29.5243 0.782696 29.5243H8.94564C9.38195 29.5243 9.72834 29.1788 9.72834 28.7435C9.72834 28.3083 9.38195 27.9628 8.94564 27.9628H0.782696ZM44.0544 27.9628C43.6181 27.9628 43.2717 28.3083 43.2717 28.7435C43.2717 29.1788 43.6181 29.5243 44.0544 29.5243H52.2173C52.6536 29.5243 53 29.1788 53 28.7435C53 28.3083 52.6536 27.9628 52.2173 27.9628H44.0544V27.9628ZM21.2445 43.2442C20.8082 43.2442 20.4618 43.5897 20.4618 44.025C20.4618 44.4602 20.8082 44.8057 21.2445 44.8057H31.7546C32.1909 44.8057 32.5373 44.4602 32.5373 44.025C32.5373 43.5897 32.1909 43.2442 31.7546 43.2442H21.2445ZM22.3622 45.9217C21.9259 45.9217 21.5795 46.2672 21.5795 46.7025C21.5795 47.1377 21.9259 47.4833 22.3622 47.4833H30.6368C31.0731 47.4833 31.4195 47.1377 31.4195 46.7025C31.4195 46.2672 31.0731 45.9217 30.6368 45.9217H22.3622ZM23.4799 48.5992C23.0436 48.5992 22.6973 48.9447 22.6973 49.38C22.6973 49.8152 23.0436 50.1608 23.4799 50.1608H29.5182C29.9545 50.1608 30.3009 49.8152 30.3009 49.38C30.3009 48.9447 29.9545 48.5992 29.5182 48.5992H23.4799Z" fill="#E7873C"/>
</svg>
