<svg width="22" height="19" viewBox="0 0 22 19" fill="none" xmlns="http://www.w3.org/2000/svg">
<path d="M10.9565 0.00306738C10.7156 0.0301957 10.5349 0.239169 10.5403 0.485443V1.90926H0.489858C0.47525 1.90841 0.460642 1.90841 0.446033 1.90926C0.322072 1.91519 0.205206 1.97072 0.121731 2.06397C0.0382549 2.15723 -0.00556979 2.28058 0.000273501 2.40647C0.0061168 2.53236 0.0607933 2.65105 0.152617 2.73582C0.24444 2.8206 0.365479 2.86511 0.489441 2.85917H1.42437V14.7274C1.42437 14.9898 1.63389 15.2021 1.89183 15.2021H10.5403V16.2406C9.99857 16.4386 9.6054 16.9617 9.6054 17.5759C9.6054 18.3571 10.239 19.0001 11.0078 19.0001C11.7766 19.0001 12.4102 18.3567 12.4102 17.5759C12.4102 16.9617 12.0166 16.4386 11.4753 16.2406V15.2021H20.1233C20.3817 15.2021 20.5908 14.9898 20.5908 14.7274V2.85875H21.5257C21.6509 2.86044 21.7716 2.81127 21.8605 2.72226C21.9494 2.63282 21.9999 2.51117 21.9999 2.384C21.9999 2.25684 21.9498 2.13518 21.8605 2.04575C21.7711 1.95631 21.6505 1.90714 21.5257 1.90926H11.4753V0.485019C11.4782 0.348106 11.4231 0.217127 11.3237 0.124721C11.2244 0.0323151 11.0904 -0.0117684 10.9569 0.00306738H10.9565ZM2.35971 2.85875H19.6559V14.2526H2.35971V2.85875ZM9.83913 4.52036C9.58119 4.52036 9.37166 4.73314 9.37166 4.9951V12.1163C9.37166 12.3782 9.58119 12.591 9.83913 12.591H12.1764C12.4344 12.591 12.6439 12.3782 12.6439 12.1163V4.9951C12.6452 4.74925 12.4611 4.54325 12.2203 4.52036C12.2057 4.51951 12.1911 4.51951 12.1764 4.52036H9.83913ZM10.3066 5.46985H11.709V11.6415H10.3066V5.46985ZM13.8126 6.41934C13.5546 6.41934 13.3451 6.63213 13.3451 6.89409V12.1163C13.3451 12.3782 13.5546 12.591 13.8126 12.591H16.1499C16.4082 12.591 16.6173 12.3782 16.6173 12.1163V6.89409C16.6186 6.64823 16.4345 6.44223 16.1937 6.41934C16.1791 6.41849 16.1645 6.41849 16.1499 6.41934H13.8126ZM14.28 7.36883H15.6824V11.6415H14.28V7.36883ZM5.82186 8.31832C5.58104 8.34121 5.39697 8.54722 5.39822 8.79307V12.1163C5.39822 12.3782 5.60733 12.591 5.86569 12.591H8.20301C8.46095 12.591 8.67047 12.3782 8.67047 12.1163V8.79307C8.67047 8.53111 8.46095 8.31832 8.20301 8.31832H5.86569C5.85108 8.31748 5.83647 8.31748 5.82186 8.31832ZM6.33315 9.26781H7.73554V11.6415H6.33315V9.26781ZM11.0078 17.1011C11.2716 17.1011 11.4753 17.308 11.4753 17.5759C11.4753 17.8438 11.2716 18.0506 11.0078 18.0506C10.744 18.0506 10.5403 17.8438 10.5403 17.5759C10.5403 17.308 10.744 17.1011 11.0078 17.1011Z" fill="white"/>
</svg>
