<svg width="14" height="17" viewBox="0 0 14 17" fill="none" xmlns="http://www.w3.org/2000/svg">
<path d="M0.49144 17H11.9386C13.075 17 13.9997 16.1058 13.9997 15.0076V5.0099C13.9997 4.87658 13.9425 4.75617 13.8509 4.66985C13.8493 4.66862 13.8493 4.6677 13.8481 4.66647L8.95559 0.13209C8.95368 0.130247 8.95146 0.12994 8.94987 0.128097C8.86181 0.0491498 8.74483 0 8.61546 0H0.49144C0.219972 0 0 0.212573 0 0.475217V16.5251C0 16.7871 0.22029 16.9997 0.49144 16.9997V17ZM10.1858 4.53438C9.59103 4.53438 9.10722 4.06684 9.10722 3.4924V1.58846L12.2857 4.53438H10.1858ZM0.983198 0.94982H8.12402V3.49209C8.12402 4.5909 9.04873 5.48481 10.1858 5.48481H13.0171V15.0076C13.0171 15.5823 12.5333 16.0502 11.9389 16.0502H0.983198V0.94982Z" fill="white"/>
<path d="M10.8495 7.79086H3.15051C2.87872 7.79086 2.65875 8.00344 2.65875 8.26577C2.65875 8.52811 2.87872 8.74068 3.15051 8.74068H10.8495C11.121 8.74068 11.341 8.52811 11.341 8.26577C11.341 8.00313 11.121 7.79086 10.8495 7.79086Z" fill="white"/>
<path d="M5.08892 10.4013H3.15082C2.87903 10.4013 2.65906 10.6139 2.65906 10.8762C2.65906 11.1386 2.87903 11.3512 3.15082 11.3512H5.08892C5.36071 11.3512 5.58036 11.1386 5.58036 10.8762C5.58036 10.6139 5.36039 10.4013 5.08892 10.4013Z" fill="white"/>
<path d="M8.37035 10.4013H7.41417C7.1427 10.4013 6.92273 10.6139 6.92273 10.8762C6.92273 11.1386 7.1427 11.3512 7.41417 11.3512H8.37035C8.64213 11.3512 8.86179 11.1386 8.86179 10.8762C8.86179 10.6139 8.64213 10.4013 8.37035 10.4013Z" fill="white"/>
</svg>
