<svg width="25" height="32" viewBox="0 0 25 32" fill="none" xmlns="http://www.w3.org/2000/svg">
<path d="M0.877591 31.2863H21.3193C23.3487 31.2863 25 29.6894 25 27.7283V9.87492C25 9.63685 24.8978 9.42181 24.7343 9.26767C24.7315 9.26548 24.7315 9.26383 24.7292 9.26163L15.9925 1.16435C15.9891 1.16106 15.9851 1.16051 15.9823 1.15722C15.825 1.01624 15.6161 0.928467 15.3851 0.928467H0.877591C0.392816 0.928467 0 1.30807 0 1.77709V30.4382C0 30.9061 0.393383 31.2858 0.877591 31.2858V31.2863ZM18.1893 9.02575C17.1272 9.02575 16.2633 8.19085 16.2633 7.16504V3.76507L21.9392 9.02575H18.1893ZM1.75575 2.62461H14.5075V7.16449C14.5075 9.12669 16.1588 10.723 18.1893 10.723H23.2454V27.7283C23.2454 28.7547 22.3814 29.5902 21.3199 29.5902H1.75575V2.62461Z" fill="#E7873C"/>
<path d="M19.3745 14.8411H5.62596C5.14062 14.8411 4.7478 15.2207 4.7478 15.6891C4.7478 16.1576 5.14062 16.5372 5.62596 16.5372H19.3745C19.8593 16.5372 20.2521 16.1576 20.2521 15.6891C20.2521 15.2201 19.8593 14.8411 19.3745 14.8411Z" fill="#E7873C"/>
<path d="M9.08755 19.5027H5.62657C5.14123 19.5027 4.74841 19.8823 4.74841 20.3508C4.74841 20.8192 5.14123 21.1988 5.62657 21.1988H9.08755C9.57289 21.1988 9.96514 20.8192 9.96514 20.3508C9.96514 19.8823 9.57233 19.5027 9.08755 19.5027Z" fill="#E7873C"/>
<path d="M14.9475 19.5027H13.24C12.7552 19.5027 12.3624 19.8823 12.3624 20.3508C12.3624 20.8192 12.7552 21.1988 13.24 21.1988H14.9475C15.4329 21.1988 15.8251 20.8192 15.8251 20.3508C15.8251 19.8823 15.4329 19.5027 14.9475 19.5027Z" fill="#E7873C"/>
</svg>
