<svg width="10" height="9" viewBox="0 0 10 9" fill="none" xmlns="http://www.w3.org/2000/svg">
<path fill-rule="evenodd" clip-rule="evenodd" d="M8.97949 8.82102L5.17509 4.9321C4.94164 4.69346 4.94164 4.30654 5.17509 4.0679L8.97949 0.178983C9.21294 -0.059661 9.59145 -0.0596609 9.82491 0.178983C10.0584 0.417625 10.0584 0.804543 9.82491 1.04319L6.44322 4.5L9.82491 7.95681C10.0584 8.19546 10.0584 8.58237 9.82491 8.82102C9.59145 9.05966 9.21294 9.05966 8.97949 8.82102Z" fill="#938561"/>
<path fill-rule="evenodd" clip-rule="evenodd" d="M3.97949 8.82102L0.175092 4.9321C-0.0583645 4.69346 -0.0583645 4.30654 0.175092 4.0679L3.97949 0.178983C4.21294 -0.059661 4.59145 -0.0596609 4.82491 0.178983C5.05836 0.417625 5.05836 0.804543 4.82491 1.04319L1.44322 4.5L4.82491 7.95681C5.05836 8.19546 5.05836 8.58237 4.82491 8.82102C4.59145 9.05966 4.21294 9.05966 3.97949 8.82102Z" fill="#938561"/>
</svg>
