<svg width="34" height="37" viewBox="0 0 34 37" fill="none" xmlns="http://www.w3.org/2000/svg">
<path d="M24.1723 27.1132H28.5861C28.8907 27.1132 29.1378 26.8682 29.1378 26.5663C29.1378 26.2644 28.8907 26.0194 28.5861 26.0194H25.8275V25.4725C25.8275 25.1707 25.5803 24.9257 25.2758 24.9257C24.9712 24.9257 24.7241 25.1707 24.7241 25.4725V26.0194H24.1723C23.8678 26.0194 23.6206 26.2644 23.6206 26.5663C23.6206 26.8682 23.8678 27.1132 24.1723 27.1132Z" fill="#4AA36C" stroke="#4AA36C" stroke-width="0.3"/>
<path d="M24.1725 8.10938C24.1725 6.22375 23.4171 4.41563 22.0715 3.0825C20.7266 1.74875 18.9024 1 17.0001 1C15.0977 1 13.2735 1.74875 11.9286 3.0825C10.5837 4.41563 9.82764 6.22437 9.82764 8.10938C9.82764 9.99438 10.583 11.8031 11.9286 13.1362C13.2735 14.4694 15.0983 15.2188 17.0001 15.2188C18.9018 15.2163 20.7247 14.4669 22.069 13.1344C23.4133 11.8019 24.1699 9.99438 24.1725 8.10938ZM17.0001 14.125C15.3903 14.125 13.8467 13.4913 12.7086 12.3631C11.5705 11.235 10.9311 9.705 10.9311 8.10938C10.9311 6.51375 11.5705 4.98375 12.7086 3.85562C13.8467 2.7275 15.3903 2.09375 17.0001 2.09375C18.6098 2.09375 20.1534 2.7275 21.2915 3.85562C22.4296 4.98375 23.069 6.51375 23.069 8.10938C23.069 9.705 22.4296 11.235 21.2915 12.3631C20.1534 13.4913 18.6098 14.125 17.0001 14.125Z" fill="#4AA36C" stroke="#4AA36C" stroke-width="0.3"/>
<path d="M1.23262 22.2031C1.02328 22.4694 0.95014 22.8163 1.03337 23.1431L4.10411 35.1744C4.16401 35.41 4.3021 35.6194 4.49568 35.7694C4.68925 35.9194 4.92823 36 5.17351 36H28.8251C29.0704 36 29.3094 35.9187 29.503 35.7694C29.6965 35.62 29.8346 35.4106 29.8945 35.1744L32.9653 23.1431C33.0485 22.8163 32.9754 22.4688 32.766 22.2031C32.5567 21.9375 32.2357 21.7812 31.8952 21.7812H2.1034C1.76291 21.7812 1.44196 21.9369 1.23262 22.2031ZM31.8965 22.875L28.8258 34.9062H5.17477L2.10403 22.875H31.8965Z" fill="#4AA36C" stroke="#4AA36C" stroke-width="0.3"/>
<path d="M17 31.3513C18.8564 31.3513 20.3104 30.15 20.3104 28.6169C20.3104 27.0838 18.8564 25.8825 17 25.8825C15.1437 25.8825 13.6897 27.0838 13.6897 28.6169C13.6897 30.15 15.1437 31.3513 17 31.3513ZM17 26.9763C18.2189 26.9763 19.2069 27.7106 19.2069 28.6169C19.2069 29.5231 18.2189 30.2575 17 30.2575C15.7812 30.2575 14.7931 29.5231 14.7931 28.6169C14.7931 27.7106 15.7812 26.9763 17 26.9763Z" fill="#4AA36C" stroke="#4AA36C" stroke-width="0.3"/>
<path d="M9.66688 15.2188H12.8795C12.3404 14.9107 11.8378 14.5438 11.3813 14.125H9.66625C8.03819 14.1132 6.47255 14.7425 5.31299 15.875C4.15342 17.0075 3.49513 18.5507 3.48315 20.1638L3.50585 20.6869H4.60993L4.58597 20.14C4.603 18.82 5.14715 17.5607 6.0999 16.6382C7.05202 15.7157 8.33454 15.205 9.66625 15.2182L9.66688 15.2188Z" fill="#4AA36C" stroke="#4AA36C" stroke-width="0.3"/>
<path d="M30.4936 20.6875L30.5176 20.1406C30.5005 18.5306 29.8397 16.9931 28.6802 15.8656C27.5206 14.7381 25.9575 14.1118 24.3338 14.125H22.6188C22.1623 14.5437 21.6597 14.9106 21.1206 15.2187H24.3332C27.1347 15.2187 29.4135 17.4268 29.4141 20.1168L29.3895 20.6875H30.4936Z" fill="#4AA36C" stroke="#4AA36C" stroke-width="0.3"/>
<path d="M19.1716 16.7738L18.9874 16.0719C18.6287 16.16 18.2648 16.2238 17.8972 16.2638L18.1034 17.0488L17 17.68L15.8965 17.0488L16.1027 16.2638C15.7357 16.2244 15.3713 16.16 15.0125 16.0719L14.8284 16.7738C14.7679 17.0057 14.7855 17.2507 14.8788 17.4713C14.9721 17.6919 15.1361 17.8763 15.3448 17.9963L15.4476 18.055L15.1537 20.6875H16.2641L16.4918 18.6481C16.8095 18.815 17.1904 18.815 17.5082 18.6481L17.7358 20.6875H18.8462L18.5524 18.055L18.6551 17.9963C18.8645 17.8769 19.0278 17.6919 19.1211 17.4713C19.2144 17.25 19.2321 17.005 19.1716 16.7738Z" fill="#4AA36C" stroke="#4AA36C" stroke-width="0.3"/>
</svg>
