<svg width="19" height="19" viewBox="0 0 19 19" fill="none" xmlns="http://www.w3.org/2000/svg">
<path d="M17.5226 10.6485V3.76202C17.5219 3.12452 17.2682 2.51341 16.8177 2.06253C16.3668 1.61165 15.7557 1.35831 15.1182 1.35755H14.5418V2.20202H15.1182C15.5317 2.20277 15.9283 2.36714 16.2209 2.65969C16.5134 2.95223 16.6778 3.34883 16.6782 3.76239V5.03851H0.844465V3.76239C0.845219 3.34883 1.00959 2.95223 1.30213 2.65969C1.59468 2.36714 1.99128 2.20277 2.40484 2.20239H3.91545V2.90926H3.52526C3.2919 2.90926 3.10303 3.09851 3.10303 3.33149C3.10303 3.56447 3.2919 3.75372 3.52526 3.75372H5.15048C5.38384 3.75372 5.57271 3.56485 5.57271 3.33149C5.57271 3.09813 5.38346 2.90926 5.15048 2.90926H4.76029V0.422232C4.76029 0.189251 4.57104 0 4.33806 0C4.10508 0 3.91583 0.189251 3.91583 0.422232V1.35755H2.40484C1.76734 1.35831 1.15624 1.61202 0.705354 2.06253C0.25447 2.51341 0.000753986 3.12452 0 3.76202V15.1182C0.000753986 15.7557 0.25447 16.3668 0.704977 16.8177C1.15586 17.2686 1.76697 17.5219 2.40446 17.5226H10.6485C11.5552 18.458 12.7989 18.9903 14.1014 19.0001C15.4039 19.0103 16.6559 18.4972 17.5769 17.5766C18.4979 16.6556 19.0106 15.4036 19.0005 14.1011C18.9903 12.7985 18.458 11.5548 17.5226 10.6482V10.6485ZM2.40446 16.6782C1.9909 16.6778 1.5943 16.5131 1.30176 16.2209C1.00921 15.9283 0.844842 15.5317 0.844088 15.1182V5.8826H16.6778V9.99032C15.4269 9.22201 13.8956 9.0599 12.5117 9.54924C11.1277 10.0386 10.039 11.1273 9.54924 12.5117C9.05952 13.8956 9.22163 15.4269 9.99032 16.6778H2.40446V16.6782ZM14.1357 18.1564C13.0696 18.1564 12.0468 17.733 11.2932 16.979C10.5396 16.225 10.1159 15.2026 10.1159 14.1361C10.1159 13.0696 10.5392 12.0472 11.2932 11.2936C12.0472 10.5396 13.0696 10.1162 14.1357 10.1162C15.2019 10.1162 16.2247 10.5396 16.9786 11.2936C17.7326 12.0476 18.156 13.07 18.156 14.1361C18.1545 15.2019 17.7307 16.2239 16.9771 16.9775C16.2235 17.7311 15.2015 18.1549 14.1357 18.1564ZM16.3796 12.3183L16.9768 12.9154L13.7459 16.1462L12.1403 14.5403L12.7375 13.9431L13.7459 14.9516L16.3796 12.3179V12.3183ZM12.7627 2.90963V2.20277H5.69524V1.35831H12.7627V0.422232C12.7627 0.189251 12.952 0 13.185 0C13.4179 0 13.6072 0.189251 13.6072 0.422232V2.90926H13.9974C14.2304 2.90926 14.4196 3.09851 14.4196 3.33149C14.4196 3.56447 14.2304 3.75372 13.9974 3.75372H12.3722C12.1392 3.75372 11.9499 3.56485 11.9499 3.33149C11.9499 3.09813 12.1392 2.90926 12.3722 2.90926H12.7627V2.90963Z" fill="white"/>
</svg>
