<svg width="17" height="17" viewBox="0 0 17 17" fill="none" xmlns="http://www.w3.org/2000/svg">
<path d="M10.3526 0.649746C9.82839 0.229362 9.17436 0 8.50034 0C7.82632 0 7.17263 0.229362 6.64805 0.649746L1.11321 5.04427C0.408012 5.6012 -0.00202572 6.44735 7.52611e-06 7.34193V14.8423C0.000685275 15.4143 0.230103 15.9628 0.637431 16.3674C1.0451 16.772 1.5978 16.9997 2.17423 17H4.54635C5.12311 16.9993 5.67548 16.7716 6.08348 16.3674C6.49115 15.9628 6.72023 15.4143 6.72091 14.8423V12.4881C6.72091 11.8572 7.06012 11.2744 7.61045 10.9589C8.16079 10.6435 8.83921 10.6435 9.38954 10.9589C9.93988 11.2744 10.2791 11.8572 10.2791 12.4881V14.8423C10.2798 15.4143 10.5092 15.9628 10.9165 16.3674C11.3242 16.772 11.8769 16.9997 12.4536 17H14.8258C15.4022 16.9993 15.9549 16.7716 16.3626 16.3674C16.7702 15.9628 16.9996 15.4143 17 14.8423V7.34193C17.0024 6.44735 16.5923 5.60086 15.8868 5.04427L10.3526 0.649746ZM15.8139 14.8423C15.8136 15.1022 15.7092 15.3514 15.5242 15.5354C15.3388 15.719 15.0877 15.8226 14.8258 15.8229H12.4536C12.1917 15.8226 11.9406 15.719 11.7552 15.5354C11.5702 15.3514 11.4658 15.1022 11.4655 14.8423V12.4881C11.4655 11.4368 10.9002 10.4652 9.98291 9.93956C9.06558 9.41392 7.93509 9.41392 7.01776 9.93956C6.10043 10.4652 5.53518 11.4368 5.53518 12.4881V14.8423C5.53485 15.1022 5.43047 15.3514 5.24545 15.5354C5.06008 15.719 4.80898 15.8226 4.54703 15.8229H2.17423C1.91228 15.8226 1.66117 15.719 1.47581 15.5354C1.29078 15.3514 1.18641 15.1022 1.18607 14.8423V7.34193C1.18471 6.80518 1.4304 6.29736 1.85331 5.96307L7.38815 1.56854C7.70297 1.31664 8.09504 1.17943 8.49966 1.17943C8.90428 1.17943 9.29635 1.31698 9.61117 1.56887L15.146 5.9634C15.5689 6.29769 15.8146 6.80552 15.8133 7.34226L15.8136 11.0923L15.8139 14.8423Z" fill="white"/>
</svg>
