<svg width="8" height="9" viewBox="0 0 8 9" fill="none" xmlns="http://www.w3.org/2000/svg">
<path d="M7.98192 1.32C8.04202 0.99 7.95187 0.66 7.72639 0.39C7.51603 0.15 7.20057 0 6.86982 0H1.13007C0.799503 0 0.483872 0.15 0.273508 0.404914C0.0631446 0.659829 -0.0270113 0.99 0.0181525 1.33509C0.27368 2.83509 1.10002 3.96 2.27205 4.51509C1.10002 5.07 0.273508 6.19509 0.0181525 7.69509C-0.0419514 8.02509 0.0482045 8.35509 0.27368 8.62509C0.484044 8.85 0.799503 9.00017 1.13025 9.00017H6.87C7.20057 9.00017 7.51603 8.85017 7.72656 8.59526C7.9371 8.34034 8.02708 8.01034 7.98209 7.66526C7.72656 6.16526 6.90022 5.04034 5.72819 4.48526C6.90022 3.94526 7.72673 2.82034 7.98209 1.32034L7.98192 1.32ZM7.23062 7.79983C7.24573 7.91983 7.21551 8.02474 7.14046 8.11491C7.06542 8.20509 6.96015 8.25 6.85506 8.25H1.1299C1.02481 8.25 0.919539 8.20509 0.844495 8.11491C0.769451 8.02474 0.739399 7.91983 0.754339 7.79983C1.05486 5.99983 2.30193 4.87491 3.98484 4.87491C5.66775 4.87491 6.92993 5.99983 7.23045 7.79983H7.23062ZM4.00012 4.12491C2.31721 4.12491 1.07014 3 0.769623 1.2C0.754511 1.08 0.784735 0.975086 0.859779 0.884914C0.919883 0.794914 1.02498 0.749829 1.13025 0.749829H6.87017C6.97526 0.749829 7.08053 0.794743 7.15558 0.884914C7.23062 0.975086 7.26067 1.08 7.24573 1.2C6.9301 3 5.68303 4.12491 4.00012 4.12491Z" fill="#EA9655"/>
</svg>
