<svg width="20" height="20" viewBox="0 0 20 20" fill="none" xmlns="http://www.w3.org/2000/svg">
<path fill-rule="evenodd" clip-rule="evenodd" d="M4.2999 1C3.53648 1 2.87014 1.53454 2.7046 2.27961L1.21697 8.97496C1.07297 9.62329 1 10.2854 1 10.9498V16.65C1 17.9425 2.05722 19 3.34941 19H16.6506C17.9431 19 19 17.9425 19 16.65V10.9498C19.0003 10.2848 18.9254 9.62168 18.7766 8.97336L17.2417 2.27543C17.0714 1.53132 16.404 1 15.6406 1H4.2999V1ZM4.2999 1.9H15.641C15.9894 1.9 16.2867 2.13689 16.3645 2.47664L17.9 9.17457C18.0334 9.757 18.1009 10.3526 18.1009 10.9498V16.65C18.1006 17.4559 17.4571 18.1 16.6509 18.1H3.34941C2.54355 18.1 1.90003 17.4562 1.90003 16.65V10.9498C1.90003 10.3513 1.96561 9.75443 2.09547 9.17007L3.58309 2.47536C3.65831 2.13689 3.95339 1.9 4.2999 1.9Z" fill="white" stroke="white" stroke-width="0.1"/>
<path fill-rule="evenodd" clip-rule="evenodd" d="M3.03643 9.6087C2.77625 9.6087 2.56522 9.81004 2.56522 10.0583C2.56522 10.3065 2.77625 10.5078 3.03643 10.5078H5.02631C5.39689 10.5078 5.71496 10.7448 5.80483 11.0878L6.31744 13.043C6.51098 13.7822 7.21208 14.304 8.01046 14.3044H11.9899C12.7883 14.3047 13.4897 13.7825 13.6832 13.0433L14.1952 11.0878C14.285 10.7448 14.6031 10.5078 14.9737 10.5078H16.9636C17.2237 10.5078 17.4348 10.3065 17.4348 10.0583C17.4348 9.81004 17.2237 9.6087 16.9636 9.6087H14.9737C14.1756 9.6087 13.4745 10.1308 13.281 10.8697L12.7684 12.8253C12.6785 13.1686 12.3605 13.4056 11.9895 13.4056H8.01012C7.6392 13.4052 7.32113 13.1683 7.23127 12.825L6.71932 10.8697C6.52579 10.1308 5.82435 9.6087 5.02631 9.6087H3.03643Z" fill="white" stroke="white" stroke-width="0.1"/>
<path fill-rule="evenodd" clip-rule="evenodd" d="M10.0003 2.56522C9.7934 2.56522 9.62559 2.77086 9.62559 3.02438V6.76265L8.68299 5.60785C8.5366 5.42844 8.29948 5.42844 8.15308 5.60785C8.00696 5.78692 8.00696 6.07784 8.15308 6.25724L9.33949 7.71116C9.70106 8.15425 10.299 8.15425 10.6605 7.71116L11.8469 6.25724C11.9931 6.07784 11.9931 5.78725 11.8469 5.60785C11.7008 5.42844 11.4634 5.42844 11.317 5.60785L10.3747 6.76265V3.02438C10.3747 2.77086 10.2069 2.56522 10 2.56522H10.0003Z" fill="white" stroke="white" stroke-width="0.1"/>
</svg>
