<svg width="16" height="17" viewBox="0 0 16 17" fill="none" xmlns="http://www.w3.org/2000/svg">
<path d="M16 14.4909C16 14.3628 15.9489 14.2399 15.858 14.1493C15.7671 14.0587 15.6437 14.0078 15.5152 14.0078H14.2883C14.3303 13.934 14.3519 13.8507 14.3515 13.7662V9.4176C14.3494 7.95859 13.8558 6.54185 12.9507 5.39474C12.0455 4.24763 10.7801 3.43615 9.35758 3.0906C9.64675 2.70578 9.78139 2.22735 9.7355 1.74892C9.68961 1.27049 9.46667 0.825712 9.10952 0.502588C8.75238 0.179465 8.28701 0 7.80476 0C7.32251 0 6.85714 0.179034 6.5 0.502588C6.14286 0.826143 5.91991 1.27049 5.87403 1.74892C5.82814 2.22735 5.96277 2.70578 6.25195 3.0906C4.82814 3.43745 3.56234 4.25022 2.65714 5.39948C1.75195 6.54875 1.26017 7.96678 1.26017 9.42752V13.7761C1.25931 13.8607 1.28139 13.9439 1.32294 14.0177H0.484848C0.217316 14.0177 0 14.2343 0 14.5009C0 14.7675 0.217316 14.984 0.484848 14.984H5.52727C5.63074 15.7351 6.09437 16.3896 6.7697 16.7381C7.44546 17.0871 8.24892 17.0871 8.92468 16.7381C9.60043 16.3891 10.0636 15.7351 10.1671 14.984H15.5004C15.6333 14.9879 15.7619 14.9374 15.8563 14.8443C15.9507 14.7511 16.0026 14.6234 16 14.4909ZM6.83636 1.92839C6.83636 1.67213 6.93853 1.42623 7.12035 1.24504C7.30216 1.06385 7.54892 0.962036 7.80606 0.962036C8.0632 0.962036 8.30996 1.06385 8.49178 1.24504C8.67359 1.42623 8.77576 1.67213 8.77576 1.92839C8.77576 2.18464 8.67359 2.43054 8.49178 2.61173C8.30996 2.79293 8.0632 2.89474 7.80606 2.89474C7.55065 2.89474 7.30519 2.79422 7.12381 2.61519C6.94199 2.43615 6.83896 2.19284 6.83636 1.93831V1.92882V1.92839ZM2.2303 13.7662V9.4176C2.2303 7.4327 3.29307 5.59793 5.01818 4.60526C6.74329 3.6126 8.86883 3.6126 10.5939 4.60526C12.319 5.59793 13.3818 7.43227 13.3818 9.4176V13.7662C13.381 13.8507 13.403 13.934 13.4446 14.0078H2.1671C2.20736 13.937 2.229 13.8572 2.2303 13.7757V13.7657V13.7662ZM7.85455 16.0203C7.54545 16.0203 7.24546 15.9159 7.00303 15.7248C6.76061 15.5337 6.59004 15.2666 6.51862 14.9668H9.18528C9.11558 15.267 8.94632 15.5349 8.70476 15.7274C8.4632 15.9198 8.16364 16.0255 7.85455 16.0272V16.0198V16.0203Z" fill="#363C4F"/>
</svg>
