<svg width="32" height="41" viewBox="0 0 32 41" fill="none" xmlns="http://www.w3.org/2000/svg">
<path d="M32 40.147V9.47225C32 9.45395 31.99 9.43656 31.9891 9.41826C31.9845 9.34321 31.97 9.26999 31.9454 9.19861C31.9363 9.17115 31.929 9.14461 31.9163 9.11807C31.8753 9.02746 31.8226 8.94144 31.7507 8.86822L23.1825 0.24979C23.1097 0.176574 23.0233 0.123493 22.9332 0.0823088C22.9077 0.0704113 22.8822 0.0640049 22.8558 0.0548529C22.784 0.0301425 22.7103 0.0154993 22.6338 0.0109233C22.6156 0.0100081 22.5993 0.000856131 22.582 0.000856131H0.848905C0.380324 -5.90682e-05 0 0.382494 0 0.853822V40.1461C0 40.6183 0.380324 40.9999 0.848905 40.9999H31.1502C31.6197 40.9999 32 40.6183 32 40.1461V40.147ZM29.1003 8.61837H23.4318V2.91668L29.1003 8.61837V8.61837ZM1.69872 39.2931V1.70862H21.7331V9.47134C21.7331 9.94358 22.1134 10.3252 22.582 10.3252H30.3013V39.2922H1.69872V39.2931Z" fill="#E0C682"/>
<path d="M4.59939 6.01745H13.7672C14.2367 6.01745 14.6161 5.6349 14.6161 5.16357C14.6161 4.69225 14.2358 4.30969 13.7672 4.30969H4.59939C4.1299 4.30969 3.75049 4.69133 3.75049 5.16357C3.75049 5.63582 4.13081 6.01837 4.59939 6.01837V6.01745Z" fill="#E0C682"/>
<path d="M27.1332 34.3685H17.9654C17.4959 34.3685 17.1165 34.751 17.1165 35.2223C17.1165 35.6937 17.4968 36.0762 17.9654 36.0762H27.1332C27.6027 36.0762 27.9821 35.6937 27.9821 35.2223C27.9821 34.751 27.6018 34.3685 27.1332 34.3685Z" fill="#E0C682"/>
<path d="M17.2265 10.6749C17.696 10.6749 18.0754 10.2923 18.0754 9.82098C18.0754 9.34965 17.6951 8.9671 17.2265 8.9671H4.59939C4.1299 8.9671 3.75049 9.34874 3.75049 9.82098C3.75049 10.2932 4.13081 10.6749 4.59939 10.6749H17.2265Z" fill="#E0C682"/>
<path d="M27.1332 14.4473H4.86599C4.3965 14.4473 4.01709 14.8299 4.01709 15.3012V30.6994C4.01709 31.1717 4.39741 31.5533 4.86599 31.5533H27.1332C27.6026 31.5533 27.9821 31.1708 27.9821 30.6994V15.3021C27.9821 14.8299 27.6017 14.4473 27.1332 14.4473V14.4473ZM5.71581 21.218H19.4684V24.7827H5.71581V21.218V21.218ZM21.1672 21.218H26.2842V24.7827H21.1672V21.218V21.218ZM26.2842 19.5093H21.1672V16.1551H26.2842V19.5093ZM19.4684 16.1551V19.5093H5.71581V16.1551H19.4684ZM5.71581 26.4904H19.4684V29.8446H5.71581V26.4904ZM21.1672 29.8446V26.4904H26.2842V29.8446H21.1672Z" fill="#E0C682"/>
</svg>
