<svg width="32" height="32" viewBox="0 0 32 32" fill="none" xmlns="http://www.w3.org/2000/svg">
<path d="M31.2868 27.8989L24.7736 21.3844C26.7174 18.594 27.5456 15.1766 27.0959 11.8057C26.6455 8.43487 24.9495 5.3549 22.3424 3.17224C19.7339 0.98957 16.4034 -0.137012 13.0058 0.0128796C9.60818 0.163456 6.39058 1.58092 3.98542 3.98535C1.58094 6.38977 0.163444 9.60799 0.0128653 13.0055C-0.137714 16.4031 0.989577 19.7335 3.17229 22.3412C5.355 24.9489 8.43572 26.645 11.806 27.0947C15.1769 27.5443 18.5943 26.7162 21.3848 24.7724L27.8981 31.2855C28.3464 31.7399 28.9569 31.9973 29.5955 32C30.2334 32.0027 30.8467 31.7502 31.2984 31.2985C31.7495 30.8467 32.002 30.2342 32 29.5956C31.9972 28.957 31.7406 28.3465 31.2861 27.8982L31.2868 27.8989ZM1.66239 13.6393C1.6576 10.8913 2.59804 8.22474 4.32627 6.08794C6.05451 3.95044 8.46446 2.47274 11.153 1.90261C13.8415 1.33179 16.6443 1.70275 19.0912 2.9539C21.5382 4.20437 23.4813 6.25904 24.5935 8.77161C25.7058 11.2842 25.92 14.1041 25.2 16.7562C24.4799 19.4084 22.8701 21.7328 20.6402 23.3391C20.1747 21.1318 18.6977 19.2729 16.6532 18.3195C18.0173 17.4434 18.9338 16.0177 19.1645 14.4127C19.3951 12.8077 18.9174 11.1822 17.8558 9.95637C16.7942 8.73054 15.2528 8.02694 13.6314 8.02694C12.0099 8.02694 10.4685 8.73123 9.40695 9.95637C8.34537 11.1815 7.86762 12.8077 8.09828 14.4127C8.32894 16.0177 9.24542 17.4427 10.6088 18.3195C8.56987 19.2695 7.09488 21.1216 6.62534 23.3214C5.08875 22.2174 3.83758 20.7636 2.97448 19.0799C2.11139 17.3962 1.66171 15.5318 1.66171 13.64L1.66239 13.6393ZM9.63898 13.6304C9.63898 12.5716 10.0592 11.5559 10.8087 10.8071C11.5575 10.0583 12.5725 9.63742 13.6321 9.63742C14.6916 9.63742 15.7066 10.0577 16.4554 10.8071C17.2042 11.5559 17.6252 12.5709 17.6252 13.6304C17.6252 14.6899 17.2049 15.7049 16.4554 16.4537C15.7066 17.2025 14.6916 17.6234 13.6321 17.6234C12.5739 17.6221 11.5589 17.2011 10.8101 16.4524C10.0613 15.7043 9.64035 14.6892 9.63898 13.6304ZM8.09007 24.2234C8.27966 22.3748 9.37821 20.7417 11.0202 19.8704C12.6615 18.9991 14.63 19.0039 16.2672 19.8827C17.9051 20.7616 18.9961 22.4001 19.1768 24.2494C17.467 25.1515 15.5629 25.6211 13.63 25.6163C11.6971 25.6115 9.79435 25.1331 8.08939 24.2228L8.09007 24.2234ZM30.1574 30.1568C29.8419 30.4593 29.3436 30.4593 29.0281 30.1568L22.6422 23.7717C23.0405 23.4172 23.4177 23.0401 23.7722 22.6417L30.1574 29.0282C30.308 29.1767 30.3922 29.38 30.3915 29.5922C30.3915 29.8036 30.3073 30.0069 30.1574 30.1568Z" fill="#F36A6A"/>
</svg>
