<svg width="34" height="29" viewBox="0 0 34 29" fill="none" xmlns="http://www.w3.org/2000/svg">
<path d="M16.7236 0.00430921C16.356 0.0457161 16.0802 0.364679 16.0884 0.740576V2.91379H0.748061C0.725763 2.9125 0.703466 2.9125 0.681169 2.91379C0.491963 2.92285 0.313586 3.00761 0.186174 3.14994C0.0587625 3.29228 -0.00812873 3.48055 0.000790095 3.6727C0.00970892 3.86486 0.0931637 4.04601 0.233317 4.17541C0.37347 4.30481 0.558217 4.37274 0.747423 4.36368H2.17444V22.4786C2.17444 22.8791 2.49424 23.2032 2.88794 23.2032H16.0884V24.7883C15.2615 25.0904 14.6614 25.8888 14.6614 26.8263C14.6614 28.0187 15.6285 29.0002 16.802 29.0002C17.9754 29.0002 18.9425 28.018 18.9425 26.8263C18.9425 25.8888 18.3417 25.0904 17.5155 24.7883V23.2032H30.7153C31.1097 23.2032 31.4288 22.8791 31.4288 22.4786V4.36304H32.8558C33.047 4.36562 33.2311 4.29057 33.3668 4.15471C33.5025 4.01819 33.5795 3.83251 33.5795 3.63842C33.5795 3.44432 33.5031 3.25864 33.3668 3.12212C33.2304 2.98561 33.0463 2.91056 32.8558 2.91379H17.5155V0.739929C17.5199 0.530954 17.4358 0.331036 17.2842 0.189993C17.1326 0.0489511 16.9281 -0.0183352 16.7242 0.00430921H16.7236ZM3.60209 4.36304H30.0018V21.754H3.60209V4.36304ZM15.0182 6.89921C14.6245 6.89921 14.3047 7.224 14.3047 7.62383V18.4932C14.3047 18.893 14.6245 19.2178 15.0182 19.2178H18.5857C18.9794 19.2178 19.2992 18.893 19.2992 18.4932V7.62383C19.3011 7.24858 19.0202 6.93415 18.6526 6.89921C18.6303 6.89792 18.608 6.89792 18.5857 6.89921H15.0182ZM15.7317 8.34845H17.8722V17.7685H15.7317V8.34845ZM21.083 9.7977C20.6893 9.7977 20.3695 10.1225 20.3695 10.5223V18.4932C20.3695 18.893 20.6893 19.2178 21.083 19.2178H24.6505C25.0449 19.2178 25.364 18.893 25.364 18.4932V10.5223C25.3659 10.1471 25.085 9.83263 24.7174 9.7977C24.6951 9.7964 24.6728 9.7964 24.6505 9.7977H21.083ZM21.7965 11.2469H23.937V17.7685H21.7965V11.2469ZM8.88649 12.6962C8.51891 12.7311 8.23796 13.0456 8.23988 13.4208V18.4932C8.23988 18.893 8.55904 19.2178 8.95338 19.2178H12.5209C12.9146 19.2178 13.2344 18.893 13.2344 18.4932V13.4208C13.2344 13.021 12.9146 12.6962 12.5209 12.6962H8.95338C8.93109 12.6949 8.90879 12.6949 8.88649 12.6962ZM9.66689 14.1454H11.8074V17.7685H9.66689V14.1454ZM16.802 26.1017C17.2046 26.1017 17.5155 26.4174 17.5155 26.8263C17.5155 27.2352 17.2046 27.5509 16.802 27.5509C16.3993 27.5509 16.0884 27.2352 16.0884 26.8263C16.0884 26.4174 16.3993 26.1017 16.802 26.1017Z" fill="#E0C682"/>
</svg>
