<svg width="16" height="16" viewBox="0 0 16 16" fill="none" xmlns="http://www.w3.org/2000/svg">
<path d="M15.8425 14.9162L11.639 10.7127C12.7007 9.40776 13.2209 7.74513 13.0929 6.06787C12.965 4.3906 12.1982 2.8263 10.9507 1.69774C9.70313 0.569179 8.07015 -0.0376996 6.38838 0.0020834C4.70661 0.0418664 3.10441 0.725308 1.91167 1.91167C0.725308 3.10441 0.0418664 4.70661 0.0020834 6.38838C-0.0376996 8.07015 0.569179 9.70313 1.69774 10.9503C2.8263 12.1978 4.3906 12.9646 6.06786 13.0926C7.74513 13.2205 9.40776 12.7004 10.7127 11.6386L14.9162 15.8421C15.0855 15.987 15.3163 16.0361 15.5298 15.9731C15.7434 15.91 15.9104 15.743 15.9735 15.5295C16.0365 15.3159 15.9873 15.0851 15.8425 14.9158V14.9162ZM2.83794 10.2729C1.85199 9.28766 1.29803 7.95118 1.29766 6.55727C1.29766 5.16337 1.85087 3.82688 2.83606 2.84094C3.82163 1.85537 5.15811 1.30141 6.55202 1.30141C7.94592 1.30141 9.28241 1.855 10.2676 2.84094C11.2532 3.82651 11.8064 5.16337 11.8064 6.55727C11.8064 7.9508 11.252 9.28766 10.2661 10.2729C9.28503 11.2656 7.94742 11.8244 6.55202 11.8244C5.15661 11.8244 3.81862 11.2656 2.83794 10.2729Z" fill="#363C4F"/>
</svg>
