<svg width="18" height="18" viewBox="0 0 18 18" fill="none" xmlns="http://www.w3.org/2000/svg">
<path d="M17.5714 7.49753L16.0308 7.35068C15.8518 6.58462 15.552 5.86188 15.1375 5.19429L16.1222 3.99986C16.2775 3.8114 16.2643 3.53631 16.0917 3.3634L14.6361 1.90776C14.4635 1.7352 14.1881 1.72166 13.9996 1.87731L12.8052 2.86195C12.1376 2.44711 11.4149 2.14766 10.6488 1.96867L10.5023 0.428096C10.4793 0.185151 10.2753 -0.000610352 10.031 -0.000610352H7.96863C7.72433 -0.000610352 7.52029 0.184813 7.49695 0.428096L7.3501 1.96867C6.58438 2.14766 5.86163 2.44711 5.19404 2.86195L3.99962 1.87731C3.81115 1.722 3.53606 1.7352 3.36316 1.90776L1.90752 3.3634C1.73495 3.53597 1.72176 3.8114 1.87706 3.99986L2.8617 5.19429C2.44687 5.86188 2.14742 6.58462 1.96842 7.35068L0.427852 7.49753C0.184907 7.52054 -0.000854492 7.72457 -0.000854492 7.96887V10.0309C-0.000854492 10.2752 0.184907 10.4792 0.428191 10.5022L1.96876 10.649C2.14775 11.4151 2.44755 12.1378 2.86204 12.8054L1.8774 13.9999C1.72209 14.1883 1.73529 14.4634 1.90786 14.6363L3.3635 16.092C3.53606 16.2645 3.81149 16.2781 3.99996 16.1224L5.19472 15.1374C5.86231 15.5523 6.58506 15.8517 7.35077 16.0307L7.49762 17.5713C7.52063 17.8146 7.72467 18 7.96896 18H10.0313C10.2756 18 10.4796 17.8142 10.503 17.5713L10.6495 16.0307C11.4155 15.8517 12.1379 15.5523 12.8059 15.1374L14.0003 16.1224C14.1888 16.2777 14.4639 16.2645 14.6368 16.092L16.0924 14.6363C16.265 14.4638 16.2782 14.1883 16.1229 13.9999L15.1382 12.8054C15.553 12.1378 15.8525 11.4151 16.0315 10.649L17.5721 10.5022C17.815 10.4792 18.0008 10.2752 18.0008 10.0309V7.96853C18.0008 7.72423 17.815 7.5202 17.5717 7.49719L17.5714 7.49753ZM17.053 9.60046L15.5937 9.73953C15.3825 9.75949 15.2106 9.91717 15.1724 10.1259C15.011 11.0091 14.6706 11.831 14.1603 12.5686C14.0399 12.7428 14.0497 12.976 14.1844 13.1394L15.1172 14.2709L14.27 15.1182L13.1381 14.1853C12.9747 14.0503 12.7416 14.0405 12.5673 14.1613C11.8294 14.6715 11.0075 15.0119 10.1247 15.1733C9.91625 15.2112 9.75823 15.3834 9.73827 15.5942L9.59954 17.0536H8.39902L8.25996 15.5942C8.23999 15.3834 8.08198 15.2112 7.87355 15.1733C6.99042 15.0119 6.16853 14.6712 5.43056 14.1613C5.2563 14.0408 5.02317 14.0506 4.85974 14.1853L3.72791 15.1182L2.88065 14.2709L3.81352 13.1394C3.94819 12.9756 3.95834 12.7428 3.83754 12.5686C3.32763 11.831 2.9869 11.0091 2.8255 10.1259C2.7876 9.91751 2.61537 9.75949 2.40423 9.73953L0.944872 9.60046V8.39995L2.40423 8.26088C2.61537 8.24091 2.78726 8.08324 2.8255 7.87447C2.9869 6.99134 3.32729 6.16945 3.83754 5.43182C3.958 5.25756 3.94819 5.02443 3.81352 4.861L2.88065 3.72951L3.72791 2.88225L4.85974 3.81512C5.02283 3.94979 5.25596 3.95994 5.43056 3.83914C6.16853 3.32889 6.99008 2.98849 7.87321 2.8271C8.08164 2.7892 8.23932 2.61697 8.25962 2.40617L8.39869 0.94647H9.5992L9.73827 2.40583C9.75823 2.61663 9.91625 2.78886 10.1247 2.82676C11.0075 2.98816 11.8294 3.32855 12.5673 3.8388C12.7419 3.9596 12.9747 3.94945 13.1381 3.81478L14.27 2.88191L15.1169 3.72917L14.184 4.86066C14.0494 5.02443 14.0392 5.25722 14.16 5.43148C14.6699 6.16911 15.0107 6.991 15.1721 7.87413C15.2099 8.08256 15.3822 8.24058 15.5933 8.26054L17.0527 8.39961V9.60012L17.053 9.60046Z" fill="#363C4F"/>
<path d="M8.99998 5.44931C7.04187 5.44931 5.44885 7.04233 5.44885 9.00044C5.44885 10.9585 7.04187 12.5516 8.99998 12.5516C10.9581 12.5516 12.5511 10.9585 12.5511 9.00044C12.5511 7.04233 10.9581 5.44931 8.99998 5.44931ZM8.99998 11.6038C7.5643 11.6038 6.39627 10.4358 6.39627 9.0001C6.39627 7.56442 7.5643 6.39639 8.99998 6.39639C10.4357 6.39639 11.6037 7.56442 11.6037 9.0001C11.6037 10.4358 10.4357 11.6038 8.99998 11.6038Z" fill="#363C4F"/>
</svg>
