<svg width="19" height="27" viewBox="0 0 19 27" fill="none" xmlns="http://www.w3.org/2000/svg">
<path d="M9.20912 19.397H9.65307C12.5081 19.397 14.8454 17.0077 14.8454 14.0881V6.25335C14.8454 3.33424 12.5081 0.944443 9.65307 0.944443H9.20912C6.35413 0.944443 4.01682 3.33371 4.01682 6.25335V14.0881C4.01682 17.0072 6.35362 19.397 9.20912 19.397ZM5.8215 6.25388C5.8215 4.34383 7.34103 2.7907 9.20912 2.7907H9.65307C11.5212 2.7907 13.0407 4.34436 13.0407 6.25388V14.0886C13.0407 15.9986 11.5212 17.5523 9.65307 17.5523H9.20912C7.34103 17.5523 5.8215 15.9986 5.8215 14.0886V6.25388ZM15.7472 24.9326H11.2355V22.9213C14.8449 22.1484 18.4722 18.5814 18.4722 13.8614C18.4722 13.3521 18.0587 12.9388 17.5606 12.9388C17.0625 12.9388 16.6547 13.3521 16.6547 13.8614C16.6547 18.2071 13.6842 21.2422 9.43393 21.2422C5.18367 21.2422 2.2137 18.2071 2.2137 13.8614C2.2137 13.3521 1.80945 12.9388 1.31136 12.9388C0.813272 12.9388 0.388916 13.3521 0.388916 13.8614C0.388916 18.5814 4.01631 22.15 7.62565 22.9213V24.9326H3.11397C2.61588 24.9326 2.21164 25.3459 2.21164 25.8552C2.21164 26.3645 2.61588 26.7778 3.11397 26.7778H15.7467C16.2448 26.7778 16.649 26.3645 16.649 25.8552C16.649 25.3459 16.2448 24.9326 15.7467 24.9326H15.7472Z" fill="white"/>
</svg>
