<svg width="30" height="27" viewBox="0 0 30 27" fill="none" xmlns="http://www.w3.org/2000/svg">
<path d="M11 4.97872L14.3531 8.95745L23.8966 1" stroke="white" stroke-width="2" stroke-linecap="round"/>
<path d="M28.2655 14.9394C27.8524 14.548 27.3106 14.3226 26.7426 14.3053C26.1739 14.288 25.6194 14.4801 25.1839 14.8459L20.4482 18.477C20.1792 18.6826 19.8814 18.8479 19.5651 18.967C19.9192 18.2778 19.8885 17.4541 19.4837 16.7931C19.0796 16.132 18.3605 15.7298 17.5856 15.7304H11.9584C11.0734 14.646 9.79006 13.9613 8.39656 13.8294C7.53331 13.7538 6.66622 13.9229 5.89518 14.3187V12.49C5.89518 12.36 5.84331 12.2351 5.75173 12.1435C5.65952 12.0519 5.53528 12 5.40528 12H1.49054C1.36054 11.9994 1.23567 12.0512 1.14345 12.1428C1.05123 12.2344 1 12.3593 1 12.49V25.2532C1 25.3832 1.05123 25.5081 1.14345 25.5997C1.23503 25.6919 1.3599 25.7432 1.4899 25.7432H5.404C5.534 25.7432 5.65887 25.6919 5.75045 25.5997C5.84203 25.5074 5.8939 25.3832 5.8939 25.2532V24.2354L13.8809 25.8123C16.7902 26.3952 19.8058 25.6016 22.053 23.6634L28.1867 18.4027C28.6881 17.9729 28.9834 17.349 28.9981 16.688C29.0128 16.027 28.7464 15.3916 28.2648 14.9387L28.2655 14.9394ZM4.91474 24.7625H1.98109V12.98H4.91474V24.7625ZM27.5489 17.6591L21.4158 22.9191C19.3966 24.6613 16.6871 25.3736 14.0724 24.8503L5.89582 23.2355V15.4755C6.59449 14.9656 7.45454 14.7274 8.31587 14.8068C9.11637 14.8734 10.2934 15.227 11.3494 16.5292C11.4423 16.6438 11.5825 16.7104 11.7305 16.7104H17.5862C18.0294 16.7104 18.4392 16.9474 18.6608 17.3311C18.8824 17.7154 18.8824 18.1881 18.6608 18.5725C18.4392 18.9568 18.0294 19.1931 17.5862 19.1931H11.7285C11.4577 19.1931 11.238 19.4128 11.238 19.6838C11.238 19.9547 11.4577 20.1744 11.7285 20.1744H18.3259C19.3083 20.1731 20.2624 19.8503 21.0437 19.2553L25.798 15.6075C26.0702 15.3756 26.423 15.2609 26.7791 15.2885C27.1358 15.3167 27.4663 15.4851 27.6981 15.7573C27.9299 16.0296 28.0445 16.3825 28.0164 16.7386C27.9882 17.0948 27.8197 17.4259 27.5476 17.6578H27.5495L27.5489 17.6591Z" fill="white" stroke="white"/>
</svg>
