<svg width="20" height="25" viewBox="0 0 20 25" fill="none" xmlns="http://www.w3.org/2000/svg">
<path d="M0.702073 24.2863H17.0555C18.679 24.2863 20 23.0088 20 21.4399V7.15717C20 6.96671 19.9183 6.79468 19.7875 6.67136C19.7852 6.66961 19.7852 6.66829 19.7834 6.66653L12.794 0.188705C12.7913 0.186071 12.7881 0.185633 12.7858 0.182999C12.66 0.0702156 12.4929 0 12.3081 0H0.702073C0.314253 0 0 0.303683 0 0.678897V23.6078C0 23.9821 0.314707 24.2858 0.702073 24.2858V24.2863ZM14.5514 6.47783C13.7018 6.47783 13.0106 5.8099 13.0106 4.98926V2.26928L17.5514 6.47783H14.5514ZM1.4046 1.35692H11.606V4.98882C11.606 6.55858 12.927 7.83563 14.5514 7.83563H18.5963V21.4399C18.5963 22.261 17.9051 22.9293 17.0559 22.9293H1.4046V1.35692Z" fill="#E0C682"/>
<path d="M15.4996 11.1301H4.50081C4.11253 11.1301 3.79828 11.4337 3.79828 11.8085C3.79828 12.1833 4.11253 12.487 4.50081 12.487H15.4996C15.8875 12.487 16.2017 12.1833 16.2017 11.8085C16.2017 11.4333 15.8875 11.1301 15.4996 11.1301Z" fill="#E0C682"/>
<path d="M7.27008 14.8594H4.50129C4.11302 14.8594 3.79877 15.1631 3.79877 15.5378C3.79877 15.9126 4.11302 16.2163 4.50129 16.2163H7.27008C7.65835 16.2163 7.97215 15.9126 7.97215 15.5378C7.97215 15.1631 7.6579 14.8594 7.27008 14.8594Z" fill="#E0C682"/>
<path d="M11.9579 14.8594H10.5919C10.2041 14.8594 9.88983 15.1631 9.88983 15.5378C9.88983 15.9126 10.2041 16.2163 10.5919 16.2163H11.9579C12.3462 16.2163 12.66 15.9126 12.66 15.5378C12.66 15.1631 12.3462 14.8594 11.9579 14.8594Z" fill="#E0C682"/>
</svg>
